<?xml version="1.0" encoding="UTF-8" standalone="no"?>
<!DOCTYPE svg PUBLIC "-//W3C//DTD SVG 1.1//EN" "http://www.w3.org/Graphics/SVG/1.1/DTD/svg11.dtd">
<svg width="100%" height="100%" viewBox="0 0 802 165" version="1.1" xmlns="http://www.w3.org/2000/svg" xmlns:xlink="http://www.w3.org/1999/xlink" xml:space="preserve" xmlns:serif="http://www.serif.com/" style="fill-rule:evenodd;clip-rule:evenodd;stroke-linejoin:round;stroke-miterlimit:2;">
    <g transform="matrix(1,0,0,1,-70.3654,-69.82)">
        <g>
            <g>
                <g>
                    <g>
                        <path d="M428.55,70.78L400.25,145.35L413.8,145.35L419.43,130.55L452.66,130.55L458.35,145.35L471.85,145.35L442.98,70.78L428.55,70.78ZM423.68,119.35L435.9,86.85L448.33,119.35L423.68,119.35Z"/>
                        <path d="M490.79,117.27L514.02,117.27C517.72,117.2 520.51,117.76 522.38,119.1C524.09,120.52 524.8,123.18 524.8,126.97L524.8,145.35L537.53,145.35L537.53,125.13C537.5,119.42 535.98,115.38 533.18,112.92C532.59,112.4 531.95,111.95 531.24,111.57C533.3,110.56 534.86,109.08 535.93,107.15C537.61,104.22 538.51,99.54 538.51,93.08C538.51,89.21 538.18,86.08 537.54,83.7L537.54,83.69C536.37,79.46 534.17,76.33 530.97,74.26C527.48,71.98 522.39,70.78 515.66,70.78L478.07,70.78L478.07,145.35L490.8,145.35L490.8,117.27L490.79,117.27ZM490.78,82.47L515.72,82.47C518.11,82.47 520.07,82.69 521.6,83.15C522.86,83.53 523.79,84.06 524.34,84.82C524.71,85.35 524.97,86.2 525.19,87.33C525.59,89.37 525.78,92.22 525.78,95.89C525.78,99.86 524.89,102.55 522.77,103.84C520.77,105.05 517.51,105.58 513.02,105.58L490.78,105.58L490.78,82.47Z"/>
                        <path d="M563.12,130.55L596.35,130.55L602.04,145.35L615.54,145.35L586.67,70.78L572.25,70.78L543.95,145.35L557.5,145.35L563.12,130.55ZM579.6,86.85L592.03,119.35L567.38,119.35L579.6,86.85Z"/>
                        <path d="M628.92,145.35L641.65,145.35L641.65,83.02L679.57,83.02L679.57,145.35L692.3,145.35L692.3,83.02L715.79,83.02L715.79,70.78L605.25,70.78L605.25,83.02L628.92,83.02L628.92,145.35Z"/>
                        <path d="M775.49,133.67L736.65,133.67L736.65,112.62L773.96,112.62L773.96,101.12L736.65,101.12L736.65,82.47L775.49,82.47L775.49,70.78L723.92,70.78L723.92,145.35L775.49,145.35L775.49,133.67Z"/>
                        <path d="M845.16,107.15C846.84,104.22 847.74,99.54 847.74,93.08C847.74,89.21 847.41,86.08 846.77,83.7L846.77,83.69C845.6,79.46 843.4,76.33 840.2,74.26C836.71,71.98 831.61,70.78 824.89,70.78L787.3,70.78L787.3,145.35L800.03,145.35L800.03,117.27L823.26,117.27C826.96,117.2 829.75,117.76 831.62,119.1C833.33,120.52 834.04,123.18 834.04,126.97L834.04,145.35L846.77,145.35L846.77,125.13C846.74,119.42 845.22,115.38 842.42,112.92C841.83,112.4 841.19,111.95 840.48,111.57C842.53,110.56 844.09,109.08 845.16,107.15ZM832.01,103.85C830.01,105.06 826.75,105.59 822.26,105.59L800.03,105.59L800.03,82.47L824.96,82.47C827.35,82.47 829.31,82.69 830.84,83.15C832.1,83.53 833.03,84.06 833.58,84.82C833.95,85.35 834.21,86.2 834.43,87.33C834.83,89.37 835.02,92.22 835.02,95.89C835.01,99.86 834.13,102.56 832.01,103.85Z"/>
                        <rect x="858.93" y="70.78" width="12.73" height="74.57"/>
                        <path d="M385.39,118.71C385.47,120.77 385.51,122.58 385.51,124.16C385.51,126.45 385.35,128.33 385.01,129.81C384.73,131.02 384.37,131.91 383.82,132.45C382.95,133.28 381.33,133.77 378.99,134.09C376.28,134.47 372.02,134.66 366.2,134.66C363.65,134.66 361.27,134.62 359.04,134.54C355.78,134.39 353.4,133.84 351.95,132.71C350.76,131.79 350.01,130.17 349.57,127.92L349.57,127.91C348.68,123.78 348.26,113.4 348.26,96.77C348.26,92.26 348.54,89.02 349.17,87.08C349.67,85.53 350.37,84.36 351.33,83.61C352.32,82.83 353.72,82.36 355.52,82.11C358.91,81.67 364.47,81.45 372.21,81.45C375.63,81.45 378.3,81.65 380.23,82.06C381.31,82.29 382.12,82.56 382.65,82.94C383.37,83.46 383.85,84.44 384.22,85.81C384.68,87.5 384.92,89.71 384.96,92.45C384.96,92.95 384.98,94 385.02,95.59L385.06,97.05L397.56,97.05L397.63,95.62C397.67,94.69 397.69,94.02 397.69,93.59C397.69,89.94 397.48,86.92 397.06,84.52C395.81,77.58 392.07,73.13 385.89,71.12C383.31,70.28 378.78,69.82 372.27,69.82C365.58,69.82 360.96,69.9 358.41,70.07C352.96,70.41 348.62,71.53 345.35,73.38C339.95,76.39 336.78,80.92 335.85,86.94C335.31,90.44 335.04,97.82 335.04,109.07C335.04,114.54 335.25,119.66 335.66,124.43C336.67,135.45 341.15,142.16 348.84,144.74C350.79,145.43 352.76,145.87 354.75,146.07C356.66,146.26 359.84,146.35 364.32,146.35C374.28,146.35 380.5,146.13 382.98,145.72C390.09,144.56 394.62,141.07 396.68,135.4C397.66,132.76 398.16,128.37 398.12,122.22L398.12,117.18L385.33,117.18L385.39,118.71Z"/>
                        <path d="M385.39,206.58C385.47,208.64 385.51,210.45 385.51,212.03C385.51,214.32 385.35,216.2 385.01,217.68C384.73,218.88 384.37,219.78 383.82,220.32C382.95,221.15 381.33,221.63 378.99,221.96C376.28,222.34 372.02,222.53 366.2,222.53C363.65,222.53 361.27,222.49 359.04,222.41C355.78,222.26 353.4,221.71 351.95,220.58C350.76,219.66 350.01,218.04 349.57,215.79L349.57,215.78C348.68,211.65 348.26,201.27 348.26,184.64C348.26,180.13 348.54,176.89 349.17,174.95C349.67,173.4 350.37,172.23 351.33,171.48C352.32,170.7 353.72,170.23 355.52,169.98C358.91,169.54 364.47,169.32 372.21,169.32C375.63,169.32 378.3,169.52 380.23,169.93C381.31,170.16 382.12,170.43 382.65,170.81C383.37,171.33 383.85,172.31 384.22,173.68C384.68,175.37 384.92,177.58 384.96,180.32C384.96,180.82 384.98,181.87 385.02,183.46L385.06,184.92L397.56,184.92L397.63,183.49C397.67,182.56 397.69,181.89 397.69,181.46C397.69,177.81 397.48,174.78 397.06,172.39C395.81,165.45 392.07,161.01 385.89,158.99C383.31,158.15 378.78,157.69 372.27,157.69C365.58,157.69 360.96,157.77 358.41,157.94C352.96,158.28 348.62,159.4 345.35,161.25C339.95,164.26 336.78,168.78 335.85,174.81C335.31,178.31 335.04,185.69 335.04,196.94C335.04,202.41 335.25,207.53 335.66,212.3C336.67,223.32 341.15,230.03 348.84,232.61C350.79,233.3 352.76,233.74 354.75,233.94C356.66,234.13 359.84,234.22 364.32,234.22C374.28,234.22 380.5,234 382.98,233.59C390.09,232.43 394.62,228.94 396.68,223.27C397.66,220.63 398.16,216.24 398.12,210.09L398.12,205.05L385.33,205.05L385.39,206.58Z"/>
                        <path d="M457.76,209.88C457.76,213.02 457.58,215.37 457.19,216.92L457.18,216.94C456.66,219.28 455.58,220.78 453.78,221.36L453.77,221.36C451.35,222.15 446.25,222.51 438.45,222.51C433.13,222.51 429.53,222.34 427.66,221.99C425.02,221.48 423.18,220.54 422.26,218.99C421.47,217.58 421.17,214.54 421.17,209.88L421.17,158.65L408.44,158.65L408.44,209.88C408.44,216.16 409.19,220.81 410.6,223.85C412.39,227.65 415.6,230.47 420.29,232.26C422.32,233.04 424.66,233.56 427.32,233.82C429.86,234.07 434.04,234.19 439.85,234.19C448.11,234.19 453.68,233.79 456.56,233.04C462.22,231.52 466.11,228.44 468.3,223.86C469.71,220.95 470.47,216.29 470.47,209.88L470.47,158.65L457.74,158.65L457.74,209.88L457.76,209.88Z"/>
                        <path d="M539.95,195.06L539.94,195.05C539.35,194.62 538.69,194.24 537.93,193.92C538.47,193.61 538.93,193.27 539.29,192.9C541.9,190.33 543.34,185.9 543.34,179.54C543.34,173.44 542.42,168.93 540.69,165.99L540.69,165.98C538.3,162 534.42,159.63 529,158.96C527.33,158.75 524.38,158.64 520.13,158.64L484.99,158.64L484.99,233.21L523.44,233.21C529.65,233.21 534.37,232.19 537.6,230.25C542.73,227.22 545.49,220.87 545.49,211.04C545.48,203.13 543.53,197.84 539.95,195.06ZM497.71,170.33L519.95,170.33C522.75,170.33 524.62,170.38 525.57,170.5C527.69,170.79 529.14,171.63 529.84,173.17L529.85,173.18C530.41,174.37 530.63,176.47 530.63,179.47C530.63,181.74 530.51,183.45 530.25,184.6C529.83,186.16 529.04,187.3 527.82,188C526.05,188.91 522.74,189.29 517.88,189.29L497.72,189.29L497.72,170.33L497.71,170.33ZM531.99,218.17C531.64,219.09 530.91,219.77 529.84,220.27C528.5,220.9 526.7,221.24 524.45,221.35L524.43,221.35C523.28,221.43 519.75,221.49 513.81,221.53L497.7,221.53L497.7,200.98L517.37,200.98C522.58,200.98 525.68,201.05 526.68,201.21L526.69,201.21C529.5,201.6 531.29,202.64 531.91,204.58L531.92,204.6C532.5,206.3 532.76,208.75 532.76,211.96C532.75,214.59 532.51,216.66 531.99,218.17Z"/>
                        <rect x="556.55" y="158.65" width="12.73" height="74.57"/>
                        <path d="M637.24,158.65L577.35,158.65L577.35,170.89L601.02,170.89L601.02,233.22L613.75,233.22L613.75,170.89L637.24,170.89L637.24,158.65Z"/>
                        <path d="M657.52,158.65L629.22,233.22L642.77,233.22L648.4,218.42L681.63,218.42L687.32,233.22L700.82,233.22L671.95,158.65L657.52,158.65ZM652.65,207.22L664.87,174.72L677.3,207.22L652.65,207.22Z"/>
                        <path d="M719.76,158.65L707.04,158.65L707.04,233.22L757.57,233.22L757.57,220.98L719.76,220.98L719.76,158.65Z"/>
                        <rect x="765.64" y="158.65" width="12.73" height="74.57"/>
                    </g>
                </g>
            </g>
            <g>
                <g transform="matrix(4.16667,0,0,4.16667,0,0.0666667)">
                    <path d="M16.9,42.63C16.9,42.63 16.8,25.55 17.17,22.43C17.17,22.4 17.17,22.38 17.18,22.35C17.48,20.39 18.52,18.91 20.28,17.93C21.38,17.31 22.84,16.94 24.68,16.83C25.36,16.79 26.45,16.76 27.96,16.75L30.17,16.75C31.73,16.75 34.85,16.82 37.29,17.5L36.05,20.32C34.31,19.88 31.47,19.81 30.16,19.81L30,19.81L30,19.82L27.79,19.82L27.79,19.8C25.91,19.83 24.49,19.9 23.55,20.03C22.8,20.13 22.22,20.34 21.81,20.67C21.41,20.98 21.11,21.45 20.89,22.08C21.9,21.64 23.16,21.37 24.68,21.28C25.39,21.23 26.54,21.21 28.16,21.2L31.16,21.2C31.68,21.21 34.69,21.21 37.34,22.08L36.06,24.89C33.9,24.25 31.55,24.27 31.13,24.27L29.56,24.27L29.56,24.28L27.8,24.28L27.8,24.27C25.92,24.3 24.5,24.37 23.56,24.5C22.81,24.6 22.23,24.81 21.82,25.14C21.42,25.46 21.11,25.94 20.89,26.59C21.9,26.15 23.17,25.88 24.69,25.78C25.59,25.72 27.21,25.69 29.56,25.69C29.64,25.69 29.85,25.69 29.92,25.7L31.29,25.7C31.81,25.71 34.75,25.64 37.37,26.96L36.1,29.78C34.22,28.76 31.68,28.78 31.26,28.77L27.81,28.77L27.81,28.76C25.93,28.79 24.51,28.86 23.57,28.99C22.82,29.09 22.24,29.3 21.83,29.63C21.43,29.95 21.12,30.43 20.9,31.07C21.91,30.63 23.18,30.36 24.7,30.26C25.6,30.2 27.22,30.17 29.57,30.17C31.79,30.17 33.35,30.31 34.23,30.6C36.22,31.25 37.42,32.69 37.83,34.93C37.97,35.75 38.05,36.79 38.05,38.05C38.05,38.19 38.04,38.43 38.03,38.74L34.63,38.74C34.62,38.18 34.61,37.81 34.61,37.64C34.58,35.59 34.23,34.33 33.57,33.85C32.99,33.43 31.66,33.22 29.56,33.22C26.79,33.22 24.79,33.3 23.58,33.46C22.83,33.56 22.25,33.77 21.84,34.1C21.43,34.42 21.11,34.92 20.9,35.58C20.67,36.3 20.55,37.5 20.55,39.18C20.55,45.13 20.71,48.84 21.03,50.31C21.22,51.26 21.56,51.93 22.07,52.32C22.65,52.77 23.59,53.02 24.89,53.08C25.68,53.11 26.54,53.12 27.45,53.12C29.54,53.12 31.08,53.05 32.05,52.91C33.02,52.77 33.69,52.53 34.05,52.18C34.56,51.69 34.81,50.58 34.81,48.87C34.81,48.31 34.8,47.66 34.77,46.92L38.21,46.92L38.21,48.18C38.22,50.27 38.07,51.77 37.73,52.66C37.07,54.49 35.59,55.6 33.29,55.97C32.42,56.11 30.25,56.19 26.77,56.19C25.21,56.19 24.1,56.16 23.43,56.09C22.76,56.02 22.11,55.88 21.46,55.65C18.92,54.8 17.48,52.55 17.15,48.91C17.01,47.23 16.93,45.44 16.93,43.52C16.89,43.21 16.9,42.91 16.9,42.63Z"/>
                </g>
                <g transform="matrix(4.16667,0,0,4.16667,0,0.0666667)">
                    <path d="M63.55,42.63C63.55,42.63 63.65,25.55 63.28,22.43C63.28,22.4 63.28,22.38 63.27,22.35C62.97,20.39 61.93,18.91 60.17,17.93C59.07,17.31 57.61,16.94 55.77,16.83C55.09,16.79 54,16.76 52.49,16.75L50.28,16.75C48.72,16.75 45.6,16.82 43.16,17.5L44.4,20.32C46.14,19.88 48.98,19.81 50.29,19.81L50.46,19.81L50.46,19.82L52.67,19.82L52.67,19.8C54.55,19.83 55.97,19.9 56.91,20.03C57.66,20.13 58.24,20.34 58.65,20.67C59.05,20.98 59.35,21.45 59.57,22.08C58.56,21.64 57.3,21.37 55.78,21.28C55.07,21.23 53.92,21.21 52.3,21.2L49.3,21.2C48.78,21.21 45.77,21.21 43.12,22.08L44.4,24.89C46.56,24.25 48.91,24.27 49.33,24.27L50.9,24.27L50.9,24.28L52.66,24.28L52.66,24.27C54.54,24.3 55.96,24.37 56.9,24.5C57.65,24.6 58.23,24.81 58.64,25.14C59.04,25.46 59.35,25.94 59.57,26.59C58.56,26.15 57.29,25.88 55.77,25.78C54.87,25.72 53.25,25.69 50.9,25.69C50.82,25.69 50.61,25.69 50.54,25.7L49.17,25.7C48.65,25.71 45.71,25.64 43.09,26.96L44.36,29.78C46.24,28.76 48.78,28.78 49.2,28.77L52.65,28.77L52.65,28.76C54.53,28.79 55.95,28.86 56.89,28.99C57.64,29.09 58.22,29.3 58.63,29.63C59.03,29.95 59.34,30.43 59.56,31.07C58.55,30.63 57.28,30.36 55.76,30.26C54.86,30.2 53.24,30.17 50.89,30.17C48.67,30.17 47.11,30.31 46.23,30.6C44.24,31.25 43.04,32.69 42.63,34.93C42.49,35.75 42.41,36.79 42.41,38.05C42.41,38.19 42.42,38.43 42.43,38.74L45.83,38.74C45.84,38.18 45.85,37.81 45.85,37.64C45.88,35.59 46.23,34.33 46.89,33.85C47.47,33.43 48.8,33.22 50.9,33.22C53.67,33.22 55.67,33.3 56.88,33.46C57.63,33.56 58.21,33.77 58.62,34.1C59.03,34.42 59.35,34.92 59.56,35.58C59.79,36.3 59.91,37.5 59.91,39.18C59.91,45.13 59.75,48.84 59.43,50.31C59.24,51.26 58.9,51.93 58.39,52.32C57.81,52.77 56.87,53.02 55.57,53.08C54.78,53.11 53.92,53.12 53.01,53.12C50.92,53.12 49.38,53.05 48.41,52.91C47.44,52.77 46.77,52.53 46.41,52.18C45.9,51.69 45.65,50.58 45.65,48.87C45.65,48.31 45.66,47.66 45.69,46.92L42.25,46.92L42.25,48.18C42.24,50.27 42.39,51.77 42.73,52.66C43.39,54.49 44.87,55.6 47.17,55.97C48.04,56.11 50.21,56.19 53.69,56.19C55.25,56.19 56.36,56.16 57.03,56.09C57.69,56.02 58.35,55.88 59,55.65C61.54,54.8 62.98,52.55 63.31,48.91C63.45,47.23 63.53,45.44 63.53,43.52C63.55,43.21 63.55,42.91 63.55,42.63Z"/>
                </g>
            </g>
        </g>
    </g>
</svg>
